[Header]
FileType HTR
DataType HTRS
FileVersion 1
NumSegments 64
NumFrames 4
DataFrameRate 30
EulerRotationOrder ZYX
CalibrationUnits mm
RotationUnits Degrees
GlobalAxisofGravity Y
BoneLengthAxis Y
ScaleFactor 1.0
[SegmentNames&Hierarchy]
Hips	GLOBAL
Spine	Hips
Spine1	Spine
Spine2	Spine1
Neck	Spine2
Head	Neck
LeftEye	Head
RightEye	Head
LeftShoulder	Spine2
LeftArm	LeftShoulder
LeftForeArm	LeftArm
LeftHand	LeftForeArm
LeftHandThumb1	LeftHand
LeftHandThumb2	LeftHandThumb1
LeftHandThumb3	LeftHandThumb2
LeftHandThumb4	LeftHandThumb3
LeftHandIndex1	LeftHand
LeftHandIndex2	LeftHandIndex1
LeftHandIndex3	LeftHandIndex2
LeftHandIndex4	LeftHandIndex3
LeftHandMiddle1	LeftHand
LeftHandMiddle2	LeftHandMiddle1
LeftHandMiddle3	LeftHandMiddle2
LeftHandMiddle4	LeftHandMiddle3
LeftHandRing1	LeftHand
LeftHandRing2	LeftHandRing1
LeftHandRing3	LeftHandRing2
LeftHandRing4	LeftHandRing3
LeftHandPinky1	LeftHand
LeftHandPinky2	LeftHandPinky1
LeftHandPinky3	LeftHandPinky2
LeftHandPinky4	LeftHandPinky3
RightShoulder	Spine2
RightArm	RightShoulder
RightForeArm	RightArm
RightHand	RightForeArm
RightHandPinky1	RightHand
RightHandPinky2	RightHandPinky1
RightHandPinky3	RightHandPinky2
RightHandPinky4	RightHandPinky3
RightHandRing1	RightHand
RightHandRing2	RightHandRing1
RightHandRing3	RightHandRing2
RightHandRing4	RightHandRing3
RightHandMiddle1	RightHand
RightHandMiddle2	RightHandMiddle1
RightHandMiddle3	RightHandMiddle2
RightHandMiddle4	RightHandMiddle3
RightHandIndex1	RightHand
RightHandIndex2	RightHandIndex1
RightHandIndex3	RightHandIndex2
RightHandIndex4	RightHandIndex3
RightHandThumb1	RightHand
RightHandThumb2	RightHandThumb1
RightHandThumb3	RightHandThumb2
RightHandThumb4	RightHandThumb3
LeftUpLeg	Hips
LeftLeg	LeftUpLeg
LeftFoot	LeftLeg
LeftToeBase	LeftFoot
RightUpLeg	Hips
RightLeg	RightUpLeg
RightFoot	RightLeg
RightToeBase	RightFoot
[BasePosition]
Hips	0	0	0	0	0	0	1
Spine	0	0	0	0	0	0	1
Spine1	0	0	0	0	0	0	1
Spine2	0	0	0	0	0	0	1
Neck	0	0	0	0	0	0	1
Head	0	0	0	0	0	0	1
LeftEye	0	0	0	0	0	0	1
RightEye	0	0	0	0	0	0	1
LeftShoulder	0	0	0	0	0	0	1
LeftArm	0	0	0	0	0	0	1
LeftForeArm	0	0	0	0	0	0	1
LeftHand	0	0	0	0	0	0	1
LeftHandThumb1	0	0	0	0	0	0	1
LeftHandThumb2	0	0	0	0	0	0	1
LeftHandThumb3	0	0	0	0	0	0	1
LeftHandThumb4	0	0	0	0	0	0	1
LeftHandIndex1	0	0	0	0	0	0	1
LeftHandIndex2	0	0	0	0	0	0	1
LeftHandIndex3	0	0	0	0	0	0	1
LeftHandIndex4	0	0	0	0	0	0	1
LeftHandMiddle1	0	0	0	0	0	0	1
LeftHandMiddle2	0	0	0	0	0	0	1
LeftHandMiddle3	0	0	0	0	0	0	1
LeftHandMiddle4	0	0	0	0	0	0	1
LeftHandRing1	0	0	0	0	0	0	1
LeftHandRing2	0	0	0	0	0	0	1
LeftHandRing3	0	0	0	0	0	0	1
LeftHandRing4	0	0	0	0	0	0	1
LeftHandPinky1	0	0	0	0	0	0	1
LeftHandPinky2	0	0	0	0	0	0	1
LeftHandPinky3	0	0	0	0	0	0	1
LeftHandPinky4	0	0	0	0	0	0	1
RightShoulder	0	0	0	0	0	0	1
RightArm	0	0	0	0	0	0	1
RightForeArm	0	0	0	0	0	0	1
RightHand	0	0	0	0	0	0	1
RightHandPinky1	0	0	0	0	0	0	1
RightHandPinky2	0	0	0	0	0	0	1
RightHandPinky3	0	0	0	0	0	0	1
RightHandPinky4	0	0	0	0	0	0	1
RightHandRing1	0	0	0	0	0	0	1
RightHandRing2	0	0	0	0	0	0	1
RightHandRing3	0	0	0	0	0	0	1
RightHandRing4	0	0	0	0	0	0	1
RightHandMiddle1	0	0	0	0	0	0	1
RightHandMiddle2	0	0	0	0	0	0	1
RightHandMiddle3	0	0	0	0	0	0	1
RightHandMiddle4	0	0	0	0	0	0	1
RightHandIndex1	0	0	0	0	0	0	1
RightHandIndex2	0	0	0	0	0	0	1
RightHandIndex3	0	0	0	0	0	0	1
RightHandIndex4	0	0	0	0	0	0	1
RightHandThumb1	0	0	0	0	0	0	1
RightHandThumb2	0	0	0	0	0	0	1
RightHandThumb3	0	0	0	0	0	0	1
RightHandThumb4	0	0	0	0	0	0	1
LeftUpLeg	0	0	0	0	0	0	1
LeftLeg	0	0	0	0	0	0	1
LeftFoot	0	0	0	0	0	0	1
LeftToeBase	0	0	0	0	0	0	1
RightUpLeg	0	0	0	0	0	0	1
RightLeg	0	0	0	0	0	0	1
RightFoot	0	0	0	0	0	0	1
RightToeBase	0	0	0	0	0	0	1
[Hips]
224	-140.9053955	978.9310303	73.48910522	-17.83889389	39.16895676	-374.3963318	1.0
225	-130.829483	997.2923584	64.25649261	-14.47510529	39.54353333	-368.8877258	1.0
226	-116.3294983	1012.10083	53.61243439	-10.68337917	37.72900009	-364.1740723	1.0
227	-101.2690048	1011.955933	44.77817917	-7.984137058	33.30567551	-362.3756409	1.0
[Spine]
224	0	101.8159943	1.315000057	18.24961281	-10.1827898	6.997528553	1.0
225	0	101.8159943	1.315000057	19.87878418	-14.34225941	-1.374033093	1.0
226	0	101.8159943	1.315000057	20.50442314	-19.05029678	-7.091544151	1.0
227	0	101.8159943	1.315000057	19.81824875	-23.60135078	-10.02032185	1.0
[Spine1]
224	0	100.8349991	-10.00800037	0.5780067444	-1.693048239	7.254667759	1.0
225	0	100.8349991	-10.00800037	0.4951497912	-2.462077618	7.415086746	1.0
226	0	100.8349991	-10.00800037	0.5303528905	-3.148502588	6.130178928	1.0
227	0	100.8349991	-10.00800037	0.6841572523	-3.737969637	4.996174812	1.0
[Spine2]
224	0	91	-13.73399925	0.7280958295	-1.479558945	7.288766861	1.0
225	0	91	-13.73399925	0.7413554192	-2.241079569	7.460379601	1.0
226	0	91	-13.73399925	0.8154944181	-2.971898556	6.179738522	1.0
227	0	91	-13.73399925	0.976528883	-3.604525328	5.036430359	1.0
[Neck]
224	0	166.7169952	-25.16200066	-6.956310272	-3.814069033	-3.347442389	1.0
225	0	166.7169952	-25.16200066	-5.748716831	-3.391263723	-2.146367311	1.0
226	0	166.7169952	-25.16200066	-4.556942463	-2.965060472	-0.481095612	1.0
227	0	166.7169952	-25.16200066	-3.294368982	-2.480489254	0.8202164173	1.0
[Head]
224	0	96.17900085	16.84999847	-16.86917686	-21.1227417	5.326245785	1.0
225	0	96.17900085	16.84999847	-15.045681	-18.40057945	6.378837585	1.0
226	0	96.17900085	16.84999847	-12.2226305	-15.29349613	8.285086632	1.0
227	0	96.17900085	16.84999847	-9.880317688	-12.069314	9.491969109	1.0
[LeftEye]
224	30.6760006	64.09500122	92.83599854	0	0	0	1.0
225	30.6760006	64.09500122	92.83599854	0	0	0	1.0
226	30.6760006	64.09500122	92.83599854	0	0	0	1.0
227	30.6760006	64.09500122	92.83599854	0	0	0	1.0
[RightEye]
224	-30.6760006	64.09500122	92.83499908	0	0	0	1.0
225	-30.6760006	64.09500122	92.83499908	0	0	0	1.0
226	-30.6760006	64.09500122	92.83499908	0	0	0	1.0
227	-30.6760006	64.09500122	92.83499908	0	0	0	1.0
[LeftShoulder]
224	45.70400238	109.4599991	-26.28000069	1.285255909	-4.044847488	-9.617627144	1.0
225	45.70400238	109.4599991	-26.28000069	1.789521337	-6.443713188	-10.77578259	1.0
226	45.70400238	109.4599991	-26.28000069	2.151819468	-7.974254131	-11.59996319	1.0
227	45.70400238	109.4599991	-26.28000069	2.36199379	-8.123286247	-13.34348774	1.0
[LeftArm]
224	105.923996	-5.24600029	-22.32099915	-0.1602696925	-16.22358513	-5.412415504	1.0
225	105.923996	-5.24600029	-22.32099915	4.739043713	-20.61805725	-4.430333138	1.0
226	105.923996	-5.24600029	-22.32099915	7.193899632	-23.20720673	-4.536019325	1.0
227	105.923996	-5.24600029	-22.32099915	6.254694462	-24.44684601	-2.937012911	1.0
[LeftForeArm]
224	278.414978	-0.0009999999311	0	1.029116447e-05	-95.42063141	-0.0001925843681	1.0
225	278.414978	-0.0009999999311	0	-1.220683998e-06	-102.6596375	-0.0002155761467	1.0
226	278.414978	-0.0009999999311	0	0	-109.0654678	-0.0002136230469	1.0
227	278.414978	-0.0009999999311	0	1.293950299e-05	-114.0438538	-0.0002136230469	1.0
[LeftHand]
224	283.2879944	0	0	31.44626808	-9.625863075	19.80626869	1.0
225	283.2879944	0	0	32.48572159	-8.042339325	19.69312096	1.0
226	283.2879944	0	0	33.35816574	-4.934306145	19.47566605	1.0
227	283.2879944	0	0	34.85038757	-1.490145802	19.23305511	1.0
[LeftHandThumb1]
224	24.6609993	-15.75	26.8239994	-23.61480904	13.34348297	21.6273098	1.0
225	24.6609993	-15.75	26.8239994	-26.70363045	13.98846531	21.01895142	1.0
226	24.6609993	-15.75	26.8239994	-26.9402504	13.90118027	20.39752007	1.0
227	24.6609993	-15.75	26.8239994	-24.44569588	13.13441086	19.86357307	1.0
[LeftHandThumb2]
224	32.29800034	-18.64699936	18.64699936	3.342173576	-0.1753109992	-0.1431666315	1.0
225	32.29800034	-18.64699936	18.64699936	3.706023216	0.03948475048	0.07643514872	1.0
226	32.29800034	-18.64699936	18.64699936	3.677067041	0.1389543414	0.1116139963	1.0
227	32.29800034	-18.64699936	18.64699936	3.258988142	0.07531629503	-0.04740146175	1.0
[LeftHandThumb3]
224	26.52600098	-15.31499958	15.31499958	-0.2201650888	2.417666435	2.799179316	1.0
225	26.52600098	-15.31499958	15.31499958	0.2288826853	3.267689943	2.726760387	1.0
226	26.52600098	-15.31499958	15.31499958	0.335010767	3.532303572	2.671896696	1.0
227	26.52600098	-15.31499958	15.31499958	0.1000192463	3.210046053	2.62928915	1.0
[LeftHandThumb4]
224	19.54599953	-11.28499985	11.28499985	0	0	0	1.0
225	19.54599953	-11.28499985	11.28499985	0	0	0	1.0
226	19.54599953	-11.28499985	11.28499985	0	0	0	1.0
227	19.54599953	-11.28499985	11.28499985	0	0	0	1.0
[LeftHandIndex1]
224	91.09299469	-5.170999527	22.60099792	-0.6880726814	-12.03013039	27.19543648	1.0
225	91.09299469	-5.170999527	22.60099792	-0.5811763406	-12.32649422	25.37044716	1.0
226	91.09299469	-5.170999527	22.60099792	-0.472720325	-12.56780529	23.3816433	1.0
227	91.09299469	-5.170999527	22.60099792	-0.37472561	-12.74543476	21.44019127	1.0
[LeftHandIndex2]
224	36.76399994	0	0	-0.003072794061	0.2052968591	-1.708005667	1.0
225	36.76399994	0	0	-0.004329859279	0.2445544749	-2.034769297	1.0
226	36.76399994	0	0	-0.00454037264	0.250231564	-2.081882954	1.0
227	36.76399994	0	0	-0.003601734526	0.2232650816	-1.8574301	1.0
[LeftHandIndex3]
224	28.83100128	0	0	-0.06374210864	0.9348109365	-7.800438881	1.0
225	28.83100128	0	0	-0.06685066223	0.9572557807	-7.988852978	1.0
226	28.83100128	0	0	-0.06797231734	0.9652658105	-8.056186676	1.0
227	28.83100128	0	0	-0.06700546294	0.9584111571	-7.998636723	1.0
[LeftHandIndex4]
224	23.92700005	0	0	0	0	0	1.0
225	23.92700005	0	0	0	0	0	1.0
226	23.92700005	0	0	0	0	0	1.0
227	23.92700005	0	0	0	0	0	1.0
[LeftHandMiddle1]
224	95.33399963	0	0	-0.586422503	-5.187058926	23.08787727	1.0
225	95.33399963	0	0	-0.9164025187	-1.976623178	28.27989769	1.0
226	95.33399963	0	0	-0.8149654865	-3.21646452	26.42888069	1.0
227	95.33399963	0	0	-0.4371699095	-8.061141014	20.85695457	1.0
[LeftHandMiddle2]
224	36.98199844	0	0	-0.02454929985	0.3567144573	-2.976856232	1.0
225	36.98199844	0	0	-0.07867088169	1.069267631	-8.926990509	1.0
226	36.98199844	0	0	-0.09749215841	1.154669642	-9.651364326	1.0
227	36.98199844	0	0	-0.04832099751	0.8219922781	-6.854338646	1.0
[LeftHandMiddle3]
224	29.50900078	0	0	-0.02432104759	0.5758235455	-4.795601845	1.0
225	29.50900078	0	0	-0.0172709953	0.488491863	-4.066680431	1.0
226	29.50900078	0	0	-0.01606687345	0.4700818658	-3.913141727	1.0
227	29.50900078	0	0	-0.01206019986	0.413363874	-3.440172195	1.0
[LeftHandMiddle4]
224	28.3390007	0	0	0	0	0	1.0
225	28.3390007	0	0	0	0	0	1.0
226	28.3390007	0	0	0	0	0	1.0
227	28.3390007	0	0	0	0	0	1.0
[LeftHandRing1]
224	91.04499817	-0.4390000105	-18.65100098	-0.6882833838	-0.4832048118	24.99013519	1.0
225	91.04499817	-0.4390000105	-18.65100098	-1.046934128	3.765757322	30.81290627	1.0
226	91.04499817	-0.4390000105	-18.65100098	-0.9710473418	2.712536812	29.59580994	1.0
227	91.04499817	-0.4390000105	-18.65100098	-0.6347159743	-2.737884998	24.49868011	1.0
[LeftHandRing2]
224	31.54000092	0	0	-0.02427312359	0.3540906608	-2.95480299	1.0
225	31.54000092	0	0	-0.07471481711	1.045439005	-8.726119995	1.0
226	31.54000092	0	0	-0.08370921761	1.070540309	-8.94185257	1.0
227	31.54000092	0	0	-0.02423188463	0.5400741696	-4.500098705	1.0
[LeftHandRing3]
224	29.37700081	0	0	-0.02180592529	0.5448543429	-4.537089825	1.0
225	29.37700081	0	0	-0.01529561263	0.45993343	-3.828607798	1.0
226	29.37700081	0	0	-0.01510570943	0.4559105635	-3.795127153	1.0
227	29.37700081	0	0	-0.01465493627	0.4520210326	-3.762516022	1.0
[LeftHandRing4]
224	26.47500038	0	0	0	0	0	1.0
225	26.47500038	0	0	0	0	0	1.0
226	26.47500038	0	0	0	0	0	1.0
227	26.47500038	0	0	0	0	0	1.0
[LeftHandPinky1]
224	80.77799988	-4.887000084	-38.06099701	-1.075890064	4.744049072	33.48054504	1.0
225	80.77799988	-4.887000084	-38.06099701	-1.071343541	5.261238098	33.54063416	1.0
226	80.77799988	-4.887000084	-38.06099701	-1.05545795	6.671318531	33.67697144	1.0
227	80.77799988	-4.887000084	-38.06099701	-1.001748085	8.831512451	33.55980301	1.0
[LeftHandPinky2]
224	36	0	0	0.01672878861	-4.056699753	-0.4908673763	1.0
225	36	0	0	0.01661083475	-4.056910038	-0.4891515672	1.0
226	36	0	0	0.01661096141	-4.056904793	-0.4891326725	1.0
227	36	0	0	0.01660641655	-4.056894302	-0.4891378582	1.0
[LeftHandPinky3]
224	21.14200211	0	0	-0.01595509052	0.4686020017	-3.900803804	1.0
225	21.14200211	0	0	-0.01630498841	0.4736015201	-3.942520857	1.0
226	21.14200211	0	0	-0.01669895463	0.4793029428	-3.99009943	1.0
227	21.14200211	0	0	-0.01710201614	0.4851165414	-4.038555145	1.0
[LeftHandPinky4]
224	19.75699997	0	0	0	0	0	1.0
225	19.75699997	0	0	0	0	0	1.0
226	19.75699997	0	0	0	0	0	1.0
227	19.75699997	0	0	0	0	0	1.0
[RightShoulder]
224	-45.70000076	109.4620056	-26.28000069	-0.8678671122	-6.169770718	26.32719803	1.0
225	-45.70000076	109.4620056	-26.28000069	-1.078817725	-6.91434145	25.40001869	1.0
226	-45.70000076	109.4620056	-26.28000069	-0.9380940795	-6.738991261	22.56225777	1.0
227	-45.70000076	109.4620056	-26.28000069	-0.3218063712	-4.817520142	16.57197762	1.0
[RightArm]
224	-105.9280014	-5.248000145	-22.32099915	33.25394821	-0.2961797714	27.95275307	1.0
225	-105.9280014	-5.248000145	-22.32099915	23.3344841	-16.05692863	27.69978714	1.0
226	-105.9280014	-5.248000145	-22.32099915	7.448820591	-28.99505997	29.06383896	1.0
227	-105.9280014	-5.248000145	-22.32099915	3.417985439	-37.33387756	26.19786644	1.0
[RightForeArm]
224	-278.414978	0	0	-1.940722359e-05	15.43757725	-1.059931765e-05	1.0
225	-278.414978	0	0	-3.217202539e-05	26.96495819	-2.344984568e-05	1.0
226	-278.414978	0	0	4.620036179e-06	35.71866226	2.108106173e-06	1.0
227	-278.414978	0	0	1.502982968e-06	45.99714279	-4.487095339e-06	1.0
[RightHand]
224	-283.2879944	0	0.0009999999311	-9.191005707	6.634943008	-10.88572693	1.0
225	-283.2879944	0	0.0009999999311	-7.612255573	3.288104773	-12.51243877	1.0
226	-283.2879944	0	0.0009999999311	-5.391610146	0.6869883537	-15.00304413	1.0
227	-283.2879944	0	0.0009999999311	-2.307632685	-0.5011318922	-17.2848835	1.0
[RightHandPinky1]
224	-80.76699829	-4.885000229	-38.06000137	0.2679554224	-18.86310959	8.053829193	1.0
225	-80.76699829	-4.885000229	-38.06000137	0.3505887091	-17.75673676	-1.306526423	1.0
226	-80.76699829	-4.885000229	-38.06000137	0.2728012204	-16.94739532	-8.370332718	1.0
227	-80.76699829	-4.885000229	-38.06000137	0.1654025316	-16.458992	-12.99037933	1.0
[RightHandPinky2]
224	-36	0	0.0009999999311	-1.186062098	-3.881030321	33.99020767	1.0
225	-36	0	0.0009999999311	-0.942150414	-3.489543676	30.17471504	1.0
226	-36	0	0.0009999999311	-0.6452542543	-2.924080372	24.89612389	1.0
227	-36	0	0.0009999999311	-0.3654350638	-2.215820789	18.60870361	1.0
[RightHandPinky3]
224	-21.14200211	0	0	-0.09784369916	-1.166489482	9.655297279	1.0
225	-21.14200211	0	0	-0.1106611341	-1.237160563	10.24701309	1.0
226	-21.14200211	0	0	-0.08843789995	-1.105564594	9.147089958	1.0
227	-21.14200211	0	0	-0.04498730227	-0.7910824418	6.531479836	1.0
[RightHandPinky4]
224	-19.75699997	0	0	0	0	0	1.0
225	-19.75699997	0	0	0	0	0	1.0
226	-19.75699997	0	0	0	0	0	1.0
227	-19.75699997	0	0	0	0	0	1.0
[RightHandRing1]
224	-91.03599548	-0.4390000105	-18.65100098	0.02108096145	-5.311471462	-3.23378706	1.0
225	-91.03599548	-0.4390000105	-18.65100098	-0.04960563406	-4.575644493	-8.933070183	1.0
226	-91.03599548	-0.4390000105	-18.65100098	-0.143867135	-4.273292542	-12.99917507	1.0
227	-91.03599548	-0.4390000105	-18.65100098	-0.2088489234	-4.399258614	-15.34472752	1.0
[RightHandRing2]
224	-31.54000092	0	0	-0.08190503716	-1.065033317	8.809110641	1.0
225	-31.54000092	0	0	-0.04909950122	-0.8188012242	6.761744022	1.0
226	-31.54000092	0	0	-0.01522329263	-0.4599452317	3.791675568	1.0
227	-31.54000092	0	0	-0.001650256338	-0.07599318027	0.6261382103	1.0
[RightHandRing3]
224	-29.37700081	0	0	-3.266677618	-0.939537704	7.762966156	1.0
225	-29.37700081	0	0	-3.617925167	-0.8886581659	7.341413975	1.0
226	-29.37700081	0	0	-3.625756741	-0.6814785004	5.62101078	1.0
227	-29.37700081	0	0	-3.283747673	-0.3417868614	2.813935757	1.0
[RightHandRing4]
224	-26.47500038	0	0	0	0	0	1.0
225	-26.47500038	0	0	0	0	0	1.0
226	-26.47500038	0	0	0	0	0	1.0
227	-26.47500038	0	0	0	0	0	1.0
[RightHandMiddle1]
224	-95.32500458	0	0	-0.1512545198	6.903666496	-13.07711411	1.0
225	-95.32500458	0	0	-0.2739400566	7.494699478	-17.03467751	1.0
226	-95.32500458	0	0	-0.3687008023	7.401227474	-19.38063431	1.0
227	-95.32500458	0	0	-0.4056667387	6.645357132	-20.10645866	1.0
[RightHandMiddle2]
224	-36.98199844	0	0	-0.001879148185	-0.1350375712	1.112461329	1.0
225	-36.98199844	0	0	0.0001931661973	-0.001266802428	0.01037530601	1.0
226	-36.98199844	0	0	-7.062250159e-31	-1.638132744e-06	2.797933973e-07	1.0
227	-36.98199844	0	0	2.48597587e-07	0.0002600640873	-0.002146717627	1.0
[RightHandMiddle3]
224	-29.50900078	0	0	-1.795001507	-0.5302988291	4.356541634	1.0
225	-29.50900078	0	0	-2.030498028	-0.4022598565	3.299723387	1.0
226	-29.50900078	0	0	-2.113615036	-0.1622513533	1.319905758	1.0
227	-29.50900078	0	0	-1.992459893	0.1591692418	-1.329170227	1.0
[RightHandMiddle4]
224	-28.3390007	0	0.0009999999311	0	0	0	1.0
225	-28.3390007	0	0.0009999999311	0	0	0	1.0
226	-28.3390007	0	0.0009999999311	0	0	0	1.0
227	-28.3390007	0	0.0009999999311	0	0	0	1.0
[RightHandIndex1]
224	-91.08300018	-5.167999744	22.60099792	-0.1309232712	19.85343361	-20.51608467	1.0
225	-91.08300018	-5.167999744	22.60099792	-0.2441381365	20.37748528	-23.09177208	1.0
226	-91.08300018	-5.167999744	22.60099792	-0.3061566353	19.83838463	-23.85927773	1.0
227	-91.08300018	-5.167999744	22.60099792	-0.306267947	18.27265739	-22.90701675	1.0
[RightHandIndex2]
224	-36.76399994	0	0	-0.002553454135	-0.1858237088	1.530974746	1.0
225	-36.76399994	0	0	-0.0006913052639	-0.09323516488	0.7681328058	1.0
226	-36.76399994	0	0	-3.474229118e-07	-1.810104209e-06	3.605960956e-05	1.0
227	-36.76399994	0	0	1.618895658e-05	0.001876693452	-0.01547055133	1.0
[RightHandIndex3]
224	-28.83100128	0	0	-0.0115923956	-0.4031395912	3.322952986	1.0
225	-28.83100128	0	0	-0.003457227722	-0.2078832984	1.712795615	1.0
226	-28.83100128	0	0	-0.0004741470329	0.08109268546	-0.6680713892	1.0
227	-28.83100128	0	0	-0.01391125098	0.4296720326	-3.541938066	1.0
[RightHandIndex4]
224	-23.92700005	0	0	0	0	0	1.0
225	-23.92700005	0	0	0	0	0	1.0
226	-23.92700005	0	0	0	0	0	1.0
227	-23.92700005	0	0	0	0	0	1.0
[RightHandThumb1]
224	-24.64799881	-15.72700024	26.82600021	-10.12762356	-9.190377235	-15.42575073	1.0
225	-24.64799881	-15.72700024	26.82600021	-9.603158951	-9.334630013	-15.63911915	1.0
226	-24.64799881	-15.72700024	26.82600021	-8.278746605	-9.631555557	-15.86539364	1.0
227	-24.64799881	-15.72700024	26.82600021	-6.301980019	-10.03626633	-16.09197617	1.0
[RightHandThumb2]
224	-32.29800034	-18.64699936	18.64699936	10.43140602	-25.3275547	-4.503259182	1.0
225	-32.29800034	-18.64699936	18.64699936	9.100522041	-22.12585258	-3.317439556	1.0
226	-32.29800034	-18.64699936	18.64699936	7.215362549	-17.08057976	-1.726722836	1.0
227	-32.29800034	-18.64699936	18.64699936	5.130912304	-10.65745449	-0.1608481109	1.0
[RightHandThumb3]
224	-26.52600098	-15.31399918	15.31399918	6.729897499	-14.84358025	-5.198158741	1.0
225	-26.52600098	-15.31399918	15.31399918	5.119690895	-12.2304697	-4.501593113	1.0
226	-26.52600098	-15.31399918	15.31399918	2.706940889	-8.137764931	-3.682452202	1.0
227	-26.52600098	-15.31399918	15.31399918	-0.2030924261	-2.908480883	-3.129632235	1.0
[RightHandThumb4]
224	-19.54599953	-11.28499985	11.28499985	0	0	0	1.0
225	-19.54599953	-11.28499985	11.28499985	0	0	0	1.0
226	-19.54599953	-11.28499985	11.28499985	0	0	0	1.0
227	-19.54599953	-11.28499985	11.28499985	0	0	0	1.0
[LeftUpLeg]
224	82.07800293	-67.51699829	-15.99599934	-27.32393456	21.44927216	16.3439827	1.0
225	82.07800293	-67.51699829	-15.99599934	-17.15895462	11.6163578	14.13664627	1.0
226	82.07800293	-67.51699829	-15.99599934	-7.146858692	5.699757099	7.959917545	1.0
227	82.07800293	-67.51699829	-15.99599934	-0.08639655262	4.725377083	3.400414705	1.0
[LeftLeg]
224	0	-443.7049866	2.845999956	74.64625549	3.955958366	-0.5564017892	1.0
225	0	-443.7049866	2.845999956	63.81019211	11.02454376	2.984957695	1.0
226	0	-443.7049866	2.845999956	47.52001572	12.08810616	1.827015758	1.0
227	0	-443.7049866	2.845999956	33.78166962	9.340918541	-0.6787217855	1.0
[LeftFoot]
224	0	-444.2789917	-29.8219986	5.786861897	3.368123055	11.09312534	1.0
225	0	-444.2789917	-29.8219986	6.001945972	1.921223164	9.079360008	1.0
226	0	-444.2789917	-29.8219986	1.386723757	2.524713755	2.586395979	1.0
227	0	-444.2789917	-29.8219986	-8.577195168	5.992327213	-1.041351557	1.0
[LeftToeBase]
224	0	-87.28699493	107.1060028	-4.766644001	-0.09917827696	-0.9131826162	1.0
225	0	-87.28699493	107.1060028	-12.81012535	-0.6683443189	-3.307224035	1.0
226	0	-87.28699493	107.1060028	-21.69052887	-1.676968694	-4.949311733	1.0
227	0	-87.28699493	107.1060028	-17.17506981	-0.267177999	-0.757480979	1.0
[RightUpLeg]
224	-82.07800293	-67.51699829	-15.99599934	-5.651178837	5.69827652	8.271994591	1.0
225	-82.07800293	-67.51699829	-15.99599934	-6.884320259	9.241804123	3.948731899	1.0
226	-82.07800293	-67.51699829	-15.99599934	-10.89644527	10.43446922	-0.5793312192	1.0
227	-82.07800293	-67.51699829	-15.99599934	-13.83719063	6.324730873	-0.7343706489	1.0
[RightLeg]
224	0	-443.7049866	2.861999989	36.75910568	-7.081633091	-2.590003967	1.0
225	0	-443.7049866	2.861999989	37.90417099	-9.300566673	-4.709317684	1.0
226	0	-443.7049866	2.861999989	41.20111847	-9.686995506	-4.093106747	1.0
227	0	-443.7049866	2.861999989	39.63961792	-8.304159164	-5.938309193	1.0
[RightFoot]
224	0	-444.2770081	-29.83799934	-20.24321175	-2.743217468	16.69955254	1.0
225	0	-444.2770081	-29.83799934	-12.95805073	-5.900355816	16.86464882	1.0
226	0	-444.2770081	-29.83799934	-7.405638218	-9.985902786	11.92503738	1.0
227	0	-444.2770081	-29.83799934	-11.85599899	-6.480997086	13.06952858	1.0
[RightToeBase]
224	0	-87.28699493	107.1060028	-2.678805828	-0.08318882436	-1.502484441	1.0
225	0	-87.28699493	107.1060028	-6.670976639	-0.1944103539	-2.233236551	1.0
226	0	-87.28699493	107.1060028	-3.763489723	-0.03997763246	-1.395880342	1.0
227	0	-87.28699493	107.1060028	4.216157913	-0.003437404055	-0.1983102709	1.0
[EndOfFile]
